# xmcd
#
# Track frame offsets:
#	150
#	13468
#	25060
#	37961
#	49942
#	61729
#	73125
#	85608
#	97701
#	109766
#	121441
#	133144
#	145293
#	156704
#	168164
#	179909
#	191564
#	204167
#	216579
#	229259
#
# Disc length: 3232 seconds
#
# Revision: 1
# Processed by: cddbd v1.5.1PL2 Copyright (c) Steve Scherf et al.
# Submitted via: EasyCDDAExtractor 6.2.0.3
#
DISCID=270c9e14
DTITLE=Various Artist - 10 Blues Legends CD 6
DYEAR=1900
DGENRE=
TTITLE0=Champion Jack Dupree - New Low Down Dog
TTITLE1=Champion Jack Dupree - Cabbage Greens No 1
TTITLE2=Champion Jack Dupree - Angola Blues
TTITLE3=Champion Jack Dupree - My Cabin Inn
TTITLE4=Champion Jack Dupree - Bad Health Blues
TTITLE5=Champion Jack Dupree - That's All Right
TTITLE6=Champion Jack Dupree - Gibing Blues
TTITLE7=Champion Jack Dupree - Dupree Shake Dance
TTITLE8=Champion Jack Dupree - Junker Blues
TTITLE9=Champion Jack Dupree - Big Time Mama
TTITLE10=Champion Jack Dupree - Hurry Down Sunshine
TTITLE11=Champion Jack Dupree - Jackie P. Blues
TTITLE12=Champion Jack Dupree - Heavy Heart Blues
TTITLE13=Bukka White - Aberdeen Mississippi Blues
TTITLE14=Bukka White - Parchman Farm
TTITLE15=Bukka White - Bukka Jitterburg Swing
TTITLE16=Bukka White - High Fever
TTITLE17=Bukka White - Fixin' To Die
TTITLE18=Bukka White - Pine Bluff Arkansas
TTITLE19=Bukka White - Shake 'Em On Down
EXTD=
EXTT0=
EXTT1=
EXTT2=
EXTT3=
EXTT4=
EXTT5=
EXTT6=
EXTT7=
EXTT8=
EXTT9=
EXTT10=
EXTT11=
EXTT12=
EXTT13=
EXTT14=
EXTT15=
EXTT16=
EXTT17=
EXTT18=
EXTT19=
PLAYORDER=
